<?xml version="1.0" standalone="no"?>
<!DOCTYPE svg PUBLIC "-//W3C//DTD SVG 20010904//EN"
 "http://www.w3.org/TR/2001/REC-SVG-20010904/DTD/svg10.dtd">
<svg version="1.0" xmlns="http://www.w3.org/2000/svg"
 width="260.000000pt" height="260.000000pt" viewBox="0 0 260.000000 260.000000"
 preserveAspectRatio="xMidYMid meet">
<metadata>
Created by potrace 1.11, written by Peter Selinger 2001-2013
</metadata>
<g transform="translate(0.000000,260.000000) scale(0.100000,-0.100000)"
fill="#000000" stroke="none">
<path d="M1018 2569 c-302 -48 -554 -258 -649 -540 -29 -86 -32 -106 -33 -224
-1 -145 13 -212 66 -328 108 -235 337 -405 613 -457 53 -9 245 -6 305 5 197
38 392 161 512 323 48 65 102 176 124 257 25 91 26 272 3 365 -36 144 -133
303 -247 405 -173 153 -456 233 -694 194z m283 -423 c75 -35 142 -104 181
-185 25 -54 32 -80 34 -147 6 -167 -72 -302 -214 -371 -49 -24 -69 -27 -147
-27 -77 0 -98 3 -146 27 -301 146 -285 593 26 715 74 29 192 24 266 -12z"/>
<path d="M985 838 c-419 -74 -723 -383 -761 -772 l-6 -66 932 0 931 0 -5 68
c-28 323 -259 606 -592 725 -39 14 -89 28 -111 32 -22 3 -53 9 -69 14 -39 11
-256 10 -319 -1z"/>
</g>
</svg>
